PathFileType  4	(X/Y/Z) /Users/kristensteudel/Documents/NMBL_Research/BertecForceProcessing/anc_files/
DataRate	CameraRate	NumFrames	NumMarkers	Units	OrigDataRate	OrigDataStartFrame	OrigNumFrames
  200.0		  200.0		    4		     46		 mm	  200.0	      180	    718
Frame#	Time	r_knee			r_shank_antsup			r_ankle			r_calc			r_5meta			r_toe			L_knee			L_shank_antsup			L_ankle			L_calc			L_5meta			L_toe			r_sh2			r_sh3			r_sh4			L_sh2			L_sh3			r_thigh1			r_thigh2			r_thigh3			r_thigh4			r_thigh5			L_thigh1			L_thigh2			L_thigh3			L_thigh4			r.ASIS			r.PSIS			L.ASIS			L.PSIS			C7			R_Shoulder			L_Shoulder			Sternum			R_humerus			R_elbow_med			R_elbow_lat			R_forearm			R_wrist_radius			R_wrist_ulna			L_humerus			L_elbow_med			L_elbow_lat			L_forearm			L_wrist_radius			L_wrist_ulna			
		X1	Y1	Z1	X2	Y2	Z2	X3	Y3	Z3	X4	Y4	Z4	X5	Y5	Z5	X6	Y6	Z6	X7	Y7	Z7	X8	Y8	Z8	X9	Y9	Z9	X10	Y10	Z10	X11	Y11	Z11	X12	Y12	Z12	X13	Y13	Z13	X14	Y14	Z14	X15	Y15	Z15	X16	Y16	Z16	X17	Y17	Z17	X18	Y18	Z18	X19	Y19	Z19	X20	Y20	Z20	X21	Y21	Z21	X22	Y22	Z22	X23	Y23	Z23	X24	Y24	Z24	X25	Y25	Z25	X26	Y26	Z26	X27	Y27	Z27	X28	Y28	Z28	X29	Y29	Z29	X30	Y30	Z30	X31	Y31	Z31	X32	Y32	Z32	X33	Y33	Z33	X34	Y34	Z34	X35	Y35	Z35	X36	Y36	Z36	X37	Y37	Z37	X38	Y38	Z38	X39	Y39	Z39	X40	Y40	Z40	X41	Y41	Z41	X42	Y42	Z42	X43	Y43	Z43	X44	Y44	Z44	X45	Y45	Z45	X46	Y46	Z46	

180	0.89500	1149.657	664.671	-155.380	1188.030	545.933	-154.062	1162.831	212.905	-209.779	1093.554	181.934	-278.237	1279.731	140.633	-178.081	1322.652	179.518	-231.859	601.649	576.517	-432.013	515.654	485.023	-432.379	228.006	356.319	-406.128	190.137	411.903	-363.139	188.821	189.585	-389.927	217.589	174.631	-318.267	1187.827	427.298	-168.210	1115.240	542.236	-138.011	1105.868	430.438	-165.819	473.151	562.146	-453.757	371.035	496.517	-435.379	1069.165	884.141	-128.241	1146.041	799.885	-146.786	1134.333	745.261	-133.372	991.553	804.345	-108.138	1071.971	723.659	-139.204	803.937	716.419	-450.160	718.910	610.585	-417.647	712.731	782.375	-487.924	633.042	675.592	-443.588	930.364	1018.518	-160.155	726.863	1079.058	-246.717	926.958	1015.655	-429.090	712.418	1097.085	-367.555	831.326	1555.343	-323.762	814.257	1542.614	-130.432	942.220	1523.844	-480.870	979.131	1461.391	-264.387	660.732	1402.322	-64.338	528.506	1348.350	-155.820	521.249	1385.390	-74.159	626.855	1250.622	-35.620	691.480	1153.038	-29.568	644.660	1134.713	-12.551	916.382	1287.206	-578.915	792.106	1176.079	-567.497	848.349	1218.444	-638.891	977.569	1221.794	-536.054	1024.391	1263.643	-435.181	1049.837	1204.617	-465.971
181	0.90000	1144.109	657.893	-157.404	1185.349	540.974	-154.955	1183.229	206.979	-210.839	1115.009	172.700	-279.408	1303.717	140.392	-180.066	1344.421	182.522	-233.183	604.961	575.589	-433.831	514.290	486.894	-433.740	220.724	374.372	-406.428	185.804	433.061	-365.166	174.404	210.087	-386.441	202.972	195.688	-315.523	1192.737	422.660	-168.746	1112.663	533.629	-141.212	1110.684	420.514	-167.860	476.766	565.985	-457.112	370.758	506.408	-438.204	1069.144	878.236	-128.661	1143.138	792.131	-146.640	1130.775	737.907	-134.254	989.871	800.743	-107.590	1067.855	718.175	-139.538	807.846	718.534	-447.560	723.541	610.237	-419.148	715.895	782.362	-488.398	636.743	674.506	-445.236	929.599	1018.452	-160.317	726.774	1080.273	-246.641	926.752	1017.650	-429.355	715.101	1098.801	-366.679	831.227	1556.696	-323.318	814.251	1543.352	-129.203	942.847	1525.721	-480.083	979.369	1462.964	-263.320	660.124	1402.594	-65.145	528.423	1349.580	-157.444	520.776	1386.381	-76.115	626.162	1252.018	-36.969	690.783	1154.485	-30.769	643.961	1135.788	-14.157	916.469	1289.357	-579.228	791.422	1179.471	-568.350	848.385	1221.554	-639.468	976.634	1223.788	-535.577	1022.553	1265.015	-434.107	1048.064	1205.969	-464.753
182	0.90500	1138.147	650.366	-159.755	1182.110	535.511	-155.879	1201.153	202.303	-211.572	1134.325	165.699	-279.787	1325.062	140.564	-182.304	1363.418	184.960	-234.547	609.027	574.600	-435.451	514.222	489.045	-435.245	215.434	393.220	-407.218	184.343	454.523	-366.572	160.385	232.212	-385.699	190.126	217.429	-313.250	1197.191	417.954	-169.505	1109.933	523.678	-143.864	1115.525	410.599	-169.981	481.238	569.543	-460.261	372.004	516.872	-440.336	1068.062	871.531	-128.505	1140.001	784.030	-147.570	1126.131	729.813	-135.280	987.194	796.006	-107.151	1062.777	711.846	-139.768	812.003	718.836	-447.663	728.796	609.365	-420.870	719.376	781.595	-488.995	641.059	672.787	-446.778	928.641	1018.314	-160.463	726.635	1081.440	-246.441	926.903	1019.517	-429.478	717.683	1100.005	-365.318	831.791	1558.167	-322.740	814.919	1544.009	-127.702	943.628	1527.541	-479.442	979.639	1464.268	-262.437	659.977	1402.341	-66.046	528.729	1350.237	-159.161	520.575	1386.880	-78.049	625.909	1252.793	-38.351	690.693	1155.043	-31.730	643.811	1136.311	-15.605	916.241	1291.343	-579.620	789.979	1182.819	-569.568	847.965	1224.478	-640.001	975.577	1225.243	-535.161	1021.193	1265.678	-433.168	1046.708	1206.629	-464.168
183	0.91000	1131.700	641.792	-161.900	1178.920	529.799	-156.967	1216.431	198.821	-212.241	1150.995	160.291	-280.480	1342.892	140.956	-183.823	1379.328	187.389	-235.403	613.713	573.427	-437.082	515.064	492.001	-437.082	212.230	412.758	-407.859	185.186	476.067	-367.439	148.213	255.098	-384.244	175.246	239.082	-311.762	1201.038	413.354	-170.796	1107.399	513.511	-145.786	1119.956	401.130	-172.663	486.429	573.509	-462.618	374.764	526.646	-441.988	1066.062	864.044	-128.273	1135.586	775.074	-148.675	1120.401	721.101	-135.996	983.360	791.031	-106.367	1056.358	704.955	-140.147	816.348	718.903	-448.072	734.566	607.938	-422.752	723.146	780.532	-489.559	645.594	670.472	-448.609	927.645	1018.192	-160.481	726.489	1082.093	-246.263	927.001	1021.388	-429.482	720.142	1100.653	-363.442	832.844	1559.741	-321.995	815.754	1544.517	-126.270	944.360	1529.051	-478.815	979.949	1465.350	-261.656	660.257	1401.755	-66.596	529.550	1350.299	-160.273	520.883	1386.862	-79.632	626.142	1252.886	-39.438	691.128	1155.061	-32.472	644.065	1136.228	-16.857	915.829	1293.339	-580.285	788.399	1186.295	-570.433	847.159	1227.345	-640.449	974.239	1226.201	-534.924	1019.276	1265.452	-432.368	1044.132	1206.223	-463.075
